<svg width="381" height="138" viewBox="0 0 381 138" fill="none" xmlns="http://www.w3.org/2000/svg">
<path d="M326.109 78.0631C326.769 83.3026 331.372 85.5174 334.548 85.603C340.055 85.7513 345.621 84.5063 351.127 83.6248C354.163 83.1388 361.672 86.3783 363.1 89.6574C364.832 93.6347 365.144 97.2121 362.128 101.55C356.443 109.726 348.094 109.355 340.12 109.838C335.371 110.125 330.5 109 325.692 107.867C315.753 107.719 309.499 100.805 305.015 94.2612C296.518 81.8615 293.533 67.7548 300 52.7777C304.586 42.1566 312.2 34.57 322.511 30.5112C330.651 27.3068 339.591 27.5173 348.479 29.1743C362.896 31.8619 371.075 41.4153 376.737 53.7364C378.567 57.7199 379.168 62.3407 379.894 66.7422C380.915 72.9435 377.653 77.0578 369.898 78.8647C368.193 78.4702 367.247 78.0535 366.3 78.0507C352.929 78.0109 339.557 78.012 326.186 78.0619C325.21 78.0655 324.236 78.5216 321.823 79.1296C324.5 78.3815 325.22 77.8173 326.109 78.0631ZM324.039 55.8026C323.358 57.1459 322.678 58.4892 321.851 60.1219C333.605 60.1219 344.54 60.1219 356.668 60.1219C354.585 57.627 353.445 55.8359 351.911 54.4955C343.614 47.2462 334.225 47.5632 324.039 55.8026Z" fill="#424242"/>
<path d="M66.9264 78.8818C63.7745 62.0555 69.771 48.7677 81.6519 38.0825C87.5689 32.761 95.0566 30.0821 103.398 30.8041C109.229 31.3089 115.341 30.6115 120.864 32.1334C128.172 34.1473 135.014 37.8708 139.096 44.9123C141.898 49.7457 144.535 54.6759 147.193 59.5911C147.64 60.4166 148.139 61.4092 148.074 62.285C147.532 69.6556 147.511 77.1532 145.998 84.331C145.058 88.7898 142.334 93.1714 139.483 96.8741C129.831 109.412 116.896 112.805 101.323 111.626C89.7611 110.751 81.9419 104.432 75.026 97.1433C70.7803 92.6689 69.527 85.3549 66.9264 78.8818ZM108.343 89.0814C109.002 88.9848 109.662 88.9006 110.318 88.7897C118.344 87.4324 124.877 80.6165 125.713 72.7323C126.495 65.3601 121.526 56.9288 114.826 54.2598C106.559 50.9663 97.6479 53.4014 92.4999 60.1207C88.1006 65.8629 87.5232 72.2173 90.4071 78.4127C93.6389 85.3557 99.5621 89.0961 108.343 89.0814Z" fill="#424242"/>
<path d="M18.9115 25.8239C19.0824 12.313 32.8617 1.61654 45.4277 0.744804C50.0753 0.42239 56.0236 3.66795 57.7355 7.35768C59.9957 12.2296 59.3203 17.6556 55.1338 20.9656C52.3778 23.1446 48.5348 23.9034 45.5857 25.8996C43.6734 27.194 41.3859 29.4675 41.1951 31.4847C40.6196 37.5666 40.9874 43.7378 40.9874 48.2775C46.4256 51.3854 51.0389 53.6009 55.1663 56.5065C58.8233 59.0809 57.9203 66.1244 55.0765 69.738C52.3112 73.2519 48.9842 74.5354 45.0065 74.7432C41.6524 74.9184 40.8389 76.6199 40.8638 79.59C40.9447 89.2534 40.9426 98.9184 40.8743 108.582C40.7987 119.27 37.3407 127.421 27.3487 133.536C21.8064 136.928 16.8497 137.959 11.0121 138C4.28922 138.047 2.03676 134.122 1 127.977C-0.0705043 121.632 3.13287 117.307 8.84617 115.471C12.084 114.431 17.1996 115.407 17.3861 108.967C18.1641 108.114 18.7695 107.764 18.7725 107.409C18.8613 96.942 18.9593 86.4742 18.8757 76.008C17.5 75 18.388 75.6414 15.7605 74.9347C6.27822 72.3843 3.10422 68.9013 3.84799 61.8625C4.439 56.2693 8.42169 51.9045 13.8466 51.9292C18.1061 52.5819 19.0127 50.8272 18.963 47.7332C18.8457 40.4317 18.9167 33.1272 18.9115 25.8239Z" fill="#414141"/>
<path d="M238.259 34.1476C252.332 28.3197 266.312 27.8475 279.19 35.251C284.398 38.2449 290.829 42.2344 289.238 51.4114C287.684 60.3756 280.583 64.7877 272.594 60.1215C269.215 58.1484 265.774 56.1505 262.126 54.8027C256.407 52.6905 251.07 54.4649 246.33 57.8383C239.189 62.9208 237.516 70.5732 240.581 77.8224C244.533 87.167 256.716 92.6785 266.571 85.2064C271.49 81.4766 276.924 77.0686 283.576 81.7441C285.778 83.2921 288.147 85.7398 288.745 88.1894C289.87 92.8063 289.437 96.6698 285.071 101.022C276.854 109.213 267.528 112.268 256.675 111.87C248.961 111.588 241.187 110.721 234.402 106.355C233.475 105.758 232.69 104.921 231.898 104.136C228.872 101.131 225.524 98.3649 222.962 95.002C220.758 92.1085 218.986 88.6788 217.858 85.2144C215.064 76.6379 215.492 68.3464 217.15 59.125C219.342 46.9401 228.195 42.0346 235.58 35.0433C236.11 34.5417 237.128 34.5565 238.259 34.1476Z" fill="#424242"/>
<path d="M158.902 68.9034C160.096 53.101 168.197 42.411 181.938 34.5738C190.284 29.8138 198.567 31.0085 207.053 31.0379C208.703 31.0436 210.921 32.4658 211.898 33.9011C217.018 41.4242 212.336 50.6145 203.567 52.1857C196.841 53.391 189.947 55.5015 185.495 61.3387C183.773 63.5959 183.248 66.7655 181.652 69.9439C180.764 71.3963 180.097 72.4219 180.088 73.4527C180.004 83.9909 180.027 94.5301 180.019 105.069C180.019 105.069 180.002 105.002 179.849 105.056C179.606 105.203 179.426 105.363 179.438 105.379C179.583 105.572 179.756 105.744 179.922 105.921C177.948 110.892 173.46 111.001 169.33 110.806C164.764 110.59 160.174 109.583 159.33 103.18C159.618 92.5778 159.912 83.4974 160 73.5C159.077 71.9159 159 70 158.902 68.9034Z" fill="#414141"/>
<path d="M179.963 105.689C179.756 105.744 179.583 105.572 179.438 105.379C179.426 105.363 179.606 105.203 179.883 105.05C180.069 104.989 180.004 105.456 179.963 105.689Z" fill="#868686"/>
</svg>
